<?xml version="1.0" encoding="UTF-8" standalone="no"?>
<!DOCTYPE svg PUBLIC "-//W3C//DTD SVG 1.1//EN" "http://www.w3.org/Graphics/SVG/1.1/DTD/svg11.dtd">
<svg version="1.1" xmlns="http://www.w3.org/2000/svg" xmlns:xlink="http://www.w3.org/1999/xlink" preserveAspectRatio="xMidYMid meet" viewBox="166.12643678160933 235.66666666666666 182.16091954023008 182.16091954022997" width="178.16" height="178.16"><defs><path d="M263.51 236.96L267.1 237.33L270.65 237.83L274.15 238.48L277.6 239.26L281 240.17L284.35 241.21L287.64 242.38L290.87 243.67L294.03 245.08L297.13 246.62L300.16 248.26L303.12 250.02L306 251.89L308.8 253.86L311.53 255.94L314.17 258.12L316.72 260.4L319.18 262.77L321.56 265.23L323.83 267.79L326.01 270.43L328.09 273.15L330.07 275.96L331.93 278.84L333.69 281.79L335.34 284.82L336.87 287.92L338.28 291.09L339.57 294.31L340.74 297.6L341.78 300.95L342.7 304.35L343.48 307.8L344.12 311.31L344.63 314.85L344.99 318.45L345.21 322.08L345.29 325.75L345.21 329.42L344.99 333.05L344.63 336.64L344.12 340.19L343.48 343.69L342.7 347.14L341.78 350.54L340.74 353.89L339.57 357.18L338.28 360.41L336.87 363.57L335.34 366.67L333.69 369.7L331.93 372.66L330.07 375.54L328.09 378.34L326.01 381.07L323.83 383.71L321.56 386.26L319.18 388.72L316.72 391.1L314.17 393.37L311.53 395.55L308.8 397.63L306 399.61L303.12 401.47L300.16 403.23L297.13 404.88L294.03 406.41L290.87 407.82L287.64 409.11L284.35 410.28L281 411.32L277.6 412.24L274.15 413.02L270.65 413.66L267.1 414.17L263.51 414.53L259.88 414.75L256.21 414.83L252.54 414.75L248.91 414.53L245.31 414.17L241.77 413.66L238.26 413.02L234.81 412.24L231.41 411.32L228.06 410.28L224.77 409.11L221.55 407.82L218.38 406.41L215.28 404.88L212.25 403.23L209.3 401.47L206.42 399.61L203.61 397.63L200.89 395.55L198.25 393.37L195.69 391.1L193.23 388.72L190.86 386.26L188.58 383.71L186.4 381.07L184.32 378.34L182.35 375.54L180.48 372.66L178.72 369.7L177.08 366.67L175.54 363.57L174.13 360.41L172.84 357.18L171.67 353.89L170.63 350.54L169.72 347.14L168.94 343.69L168.29 340.19L167.79 336.64L167.42 333.05L167.2 329.42L167.13 325.75L167.2 322.08L167.42 318.45L167.79 314.85L168.29 311.31L168.94 307.8L169.72 304.35L170.63 300.95L171.67 297.6L172.84 294.31L174.13 291.09L175.54 287.92L177.08 284.82L178.72 281.79L180.48 278.84L182.35 275.96L184.32 273.15L186.4 270.43L188.58 267.79L190.86 265.23L193.23 262.77L195.69 260.4L198.25 258.12L200.89 255.94L203.61 253.86L206.42 251.89L209.3 250.02L212.25 248.26L215.28 246.62L218.38 245.08L221.55 243.67L224.77 242.38L228.06 241.21L231.41 240.17L234.81 239.26L238.26 238.48L241.77 237.83L245.31 237.33L248.91 236.96L252.54 236.74L256.21 236.67L259.88 236.74L263.51 236.96ZM269.64 391.06L272.22 390.47L274.76 389.79L277.27 389.01L279.73 388.14L282.15 387.17L284.51 386.11L286.83 384.97L289.1 383.74L291.31 382.42L293.47 381.02L295.57 379.54L297.61 377.99L299.58 376.36L301.49 374.65L303.34 372.88L305.11 371.03L306.82 369.12L308.45 367.15L310 365.11L311.48 363.01L312.88 360.85L314.2 358.64L315.43 356.37L316.57 354.05L317.63 351.69L318.6 349.27L319.47 346.81L320.25 344.31L320.93 341.76L321.52 339.18L321.98 336.67L267.13 336.67L267.12 391.52L269.64 391.06ZM191.48 341.76L192.16 344.31L192.94 346.81L193.82 349.27L194.78 351.69L195.84 354.05L196.99 356.37L198.22 358.64L199.53 360.85L200.93 363.01L202.41 365.11L203.97 367.15L205.6 369.12L207.3 371.03L209.08 372.88L210.92 374.65L212.83 376.36L214.81 377.99L216.85 379.54L218.94 381.02L221.1 382.42L223.31 383.74L225.58 384.97L227.9 386.11L230.27 387.17L232.68 388.14L235.14 389.01L237.65 389.79L240.19 390.47L242.78 391.06L245.28 391.52L245.29 336.67L190.43 336.66L190.9 339.18L191.48 341.76ZM321.98 314.83L321.52 312.32L320.93 309.73L320.25 307.19L319.47 304.68L318.6 302.22L317.63 299.81L316.57 297.44L315.43 295.12L314.2 292.85L312.88 290.64L311.48 288.48L310 286.39L308.45 284.35L306.82 282.37L305.11 280.46L303.34 278.62L301.49 276.84L299.58 275.14L297.61 273.51L295.57 271.95L293.47 270.47L291.31 269.07L289.1 267.76L286.83 266.53L284.51 265.38L282.15 264.32L279.73 263.36L277.27 262.48L274.76 261.7L272.22 261.02L269.64 260.44L267.13 259.98L267.13 314.83L321.98 314.83ZM240.19 261.02L237.65 261.7L235.14 262.48L232.68 263.36L230.27 264.32L227.9 265.38L225.58 266.53L223.31 267.76L221.1 269.07L218.94 270.47L216.85 271.95L214.81 273.51L212.83 275.14L210.92 276.84L209.08 278.62L207.3 280.46L205.6 282.37L203.97 284.35L202.41 286.39L200.93 288.48L199.53 290.64L198.22 292.85L196.99 295.12L195.84 297.44L194.78 299.81L193.82 302.22L192.94 304.68L192.16 307.19L191.48 309.73L190.9 312.32L190.44 314.82L245.29 314.83L245.29 259.97L242.78 260.44L240.19 261.02Z" id="f4ZiytnQFm"></path></defs><g><g><use xlink:href="#f4ZiytnQFm" opacity="1" fill="#2f399b" fill-opacity="1"></use></g></g></svg>